<svg xmlns="http://www.w3.org/2000/svg" width="1500" height="900" viewBox="0 0 1500 900" role="img" aria-labelledby="title desc">
  <title id="title">EP08 scientific concept figure</title>
  <desc id="desc">Synthetic concept mockup showing redundant and complementary electrodes, uneven direction knowledge after a pilot, the joint electrode and trial allocation decision, competing explanations of policy value, and bounded scientific interpretations.</desc>
  <defs>
    <style type="text/css">
      .bg{fill:#f7f9fc}.panel{fill:#fff;stroke:#94a3b8;stroke-width:1.5;rx:15}.card{fill:#f8fafc;stroke:#cbd5e1;stroke-width:1.3;rx:10}.bluebox{fill:#eff6ff;stroke:#60a5fa;stroke-width:1.5;rx:10}.orangebox{fill:#fff7ed;stroke:#fb923c;stroke-width:1.5;rx:10}.greenbox{fill:#ecfdf5;stroke:#34d399;stroke-width:1.5;rx:10}.purplebox{fill:#faf5ff;stroke:#c084fc;stroke-width:1.5;rx:10}.redbox{fill:#fef2f2;stroke:#f87171;stroke-width:1.5;rx:10}
      .title{font-family:Arial,sans-serif;font-size:25px;font-weight:700;fill:#0f172a}.head{font-family:Arial,sans-serif;font-size:20px;font-weight:700;fill:#0f172a}.sub{font-family:Arial,sans-serif;font-size:15px;font-weight:700;fill:#334155}.text{font-family:Arial,sans-serif;font-size:14px;fill:#334155}.small{font-family:Arial,sans-serif;font-size:13px;fill:#475569}.tiny{font-family:Arial,sans-serif;font-size:13px;fill:#64748b}
      .axis{stroke:#94a3b8;stroke-width:1.5;fill:none}.blue{stroke:#2563eb;stroke-width:3;fill:none}.orange{stroke:#ea580c;stroke-width:3;fill:none}.green{stroke:#059669;stroke-width:3;fill:none}.gray{stroke:#94a3b8;stroke-width:2;stroke-dasharray:6 5;fill:none}.arrow{stroke:#64748b;stroke-width:2;fill:none;marker-end:url(#arrow)}
    </style>
    <marker id="arrow" viewBox="0 0 10 10" refX="9" refY="5" markerWidth="7" markerHeight="7" orient="auto-start-reverse"><path d="M0 0L10 5L0 10z" fill="#64748b"/></marker>
  </defs>
  <rect class="bg" width="1500" height="900"/>
  <text x="750" y="38" text-anchor="middle" class="title">EP08 — Can a small pilot reveal what to record next?</text>
  <rect x="560" y="49" width="380" height="29" rx="15" fill="#e2e8f0" stroke="#94a3b8"/>
  <text x="750" y="69" text-anchor="middle" class="small">CONCEPT MOCKUP · SYNTHETIC PATTERNS · NOT RESULTS</text>

  <rect x="20" y="92" width="455" height="600" class="panel"/>
  <text x="40" y="126" class="head">A  What can the pilot reveal?</text>
  <text x="40" y="151" class="small">Clean signals can be redundant; some directions remain uncertain.</text>
  <rect x="42" y="176" width="390" height="245" class="bluebox"/>
  <text x="237" y="203" text-anchor="middle" class="sub">Electrode candidates</text>
  <g fill="#bfdbfe" stroke="#2563eb" stroke-width="1.5">
    <circle cx="95" cy="245" r="15"/><circle cx="155" cy="245" r="15"/><circle cx="215" cy="245" r="15"/><circle cx="275" cy="245" r="15"/><circle cx="335" cy="245" r="15"/>
    <circle cx="95" cy="305" r="15"/><circle cx="155" cy="305" r="15"/><circle cx="215" cy="305" r="15"/><circle cx="275" cy="305" r="15"/><circle cx="335" cy="305" r="15"/>
    <circle cx="95" cy="365" r="15"/><circle cx="155" cy="365" r="15"/><circle cx="215" cy="365" r="15"/><circle cx="275" cy="365" r="15"/><circle cx="335" cy="365" r="15"/>
  </g>
  <circle cx="155" cy="245" r="19" fill="#34d399" stroke="#059669" stroke-width="3"/><circle cx="215" cy="245" r="19" fill="#34d399" stroke="#059669" stroke-width="3"/>
  <circle cx="335" cy="365" r="19" fill="#fb923c" stroke="#ea580c" stroke-width="3"/>
  <text x="155" y="250" text-anchor="middle" class="small">11</text><text x="215" y="250" text-anchor="middle" class="small">12</text><text x="335" y="370" text-anchor="middle" class="small">37</text>
  <path d="M172 232 C185 220 197 220 211 232" class="green"/><text x="191" y="220" text-anchor="middle" class="tiny">clean + redundant</text>
  <path d="M316 345 C286 327 258 323 235 314" class="orange"/><text x="301" y="327" class="tiny">complementary</text>
  <rect x="42" y="438" width="390" height="168" class="orangebox"/>
  <text x="237" y="465" text-anchor="middle" class="sub">Direction knowledge after the pilot</text>
  <g transform="translate(237,528)">
    <circle cx="0" cy="0" r="49" fill="#fff" stroke="#cbd5e1" stroke-width="2"/>
    <g stroke="#2563eb" stroke-width="6"><line x1="0" y1="-49" x2="0" y2="-72"/><line x1="35" y1="-35" x2="51" y2="-51"/><line x1="49" y1="0" x2="72" y2="0"/><line x1="35" y1="35" x2="51" y2="51"/><line x1="0" y1="49" x2="0" y2="72"/><line x1="-35" y1="35" x2="-51" y2="51"/><line x1="-49" y1="0" x2="-72" y2="0"/></g>
    <line x1="-35" y1="-35" x2="-58" y2="-58" stroke="#ea580c" stroke-width="10"/>
    <text x="-145" y="-35" class="small">largest error</text>
  </g>
  <text x="237" y="632" text-anchor="middle" class="small">Pilot sees quality, overlap, error, and uncertainty.</text>
  <text x="237" y="650" text-anchor="middle" class="small">It does not see future value.</text>

  <rect x="490" y="92" width="485" height="600" class="panel"/>
  <text x="510" y="126" class="head">B  After the pilot</text>
  <text x="510" y="151" class="small">One policy chooses what to retain and which direction comes next.</text>
  <g transform="translate(518,177)">
    <rect x="0" y="0" width="108" height="75" class="bluebox"/><text x="54" y="28" text-anchor="middle" class="sub">Pilot</text><text x="54" y="52" text-anchor="middle" class="small">all electrodes</text>
    <path d="M112 38L145 38" class="arrow"/>
    <rect x="150" y="0" width="108" height="75" class="greenbox"/><text x="204" y="28" text-anchor="middle" class="sub">Retain</text><text x="204" y="52" text-anchor="middle" class="small">one subset</text>
    <path d="M262 38L295 38" class="arrow"/>
    <rect x="300" y="0" width="108" height="75" class="orangebox"/><text x="354" y="28" text-anchor="middle" class="sub">Sample</text><text x="354" y="52" text-anchor="middle" class="small">next direction</text>
  </g>
  <text x="733" y="284" text-anchor="middle" class="sub">Candidate versus strongest matched rule at nine budgets</text>
  <g transform="translate(594,303)">
    <text x="139" y="-2" text-anchor="middle" class="tiny">additional trials</text>
    <text x="43" y="16" text-anchor="middle" class="tiny">+32</text><text x="133" y="16" text-anchor="middle" class="tiny">+64</text><text x="223" y="16" text-anchor="middle" class="tiny">+128</text>
    <text x="-40" y="111" text-anchor="middle" class="tiny" transform="rotate(-90 -40 111)">retained electrodes</text>
    <text x="-12" y="57" text-anchor="middle" class="tiny">4</text><text x="-12" y="116" text-anchor="middle" class="tiny">8</text><text x="-12" y="175" text-anchor="middle" class="tiny">16</text>
    <g fill="#f8fafc" stroke="#cbd5e1" stroke-width="1.3">
      <rect x="0" y="25" width="86" height="50"/><rect x="90" y="25" width="86" height="50"/><rect x="180" y="25" width="86" height="50"/>
      <rect x="0" y="84" width="86" height="50"/><rect x="90" y="84" width="86" height="50"/><rect x="180" y="84" width="86" height="50"/>
      <rect x="0" y="143" width="86" height="50"/><rect x="90" y="143" width="86" height="50"/><rect x="180" y="143" width="86" height="50"/>
    </g>
    <g fill="#94a3b8">
      <rect x="25" y="51" width="13" height="18"/><rect x="115" y="49" width="13" height="20"/><rect x="205" y="47" width="13" height="22"/>
      <rect x="25" y="109" width="13" height="19"/><rect x="115" y="107" width="13" height="21"/><rect x="205" y="105" width="13" height="23"/>
      <rect x="25" y="168" width="13" height="19"/><rect x="115" y="166" width="13" height="21"/><rect x="205" y="164" width="13" height="23"/>
    </g>
    <g fill="#2563eb">
      <rect x="47" y="55" width="13" height="14"/><rect x="137" y="45" width="13" height="24"/><rect x="227" y="38" width="13" height="31"/>
      <rect x="47" y="105" width="13" height="23"/><rect x="137" y="98" width="13" height="30"/><rect x="227" y="96" width="13" height="32"/>
      <rect x="47" y="163" width="13" height="24"/><rect x="137" y="158" width="13" height="29"/><rect x="227" y="151" width="13" height="36"/>
    </g>
    <line x1="12" y1="206" x2="31" y2="206" stroke="#94a3b8" stroke-width="8"/><text x="38" y="211" class="tiny">strongest rule</text>
    <line x1="145" y1="206" x2="164" y2="206" stroke="#2563eb" stroke-width="8"/><text x="171" y="211" class="tiny">candidate</text>
  </g>
  <rect x="518" y="516" width="430" height="139" class="card"/>
  <text x="733" y="544" text-anchor="middle" class="sub">Every cell asks the same question</text>
  <path d="M548 601 C591 558 633 635 676 588 S761 563 807 611 S875 626 918 580" class="black"/>
  <path d="M548 601 C591 567 633 625 676 594 S761 570 807 604 S875 618 918 586" class="green"/>
  <text x="733" y="631" text-anchor="middle" class="small">Does the policy beat the strongest matched simple rule</text>
  <text x="733" y="649" text-anchor="middle" class="small">on the same untouched population target?</text>

  <rect x="990" y="92" width="490" height="600" class="panel"/>
  <text x="1010" y="126" class="head">C  Why would the policy help?</text>
  <g transform="translate(1010,151)">
    <rect x="0" y="0" width="450" height="147" class="card"/><text x="16" y="27" class="head">R — Reliability + balance</text>
    <g fill="#60a5fa"><circle cx="50" cy="70" r="14"/><circle cx="92" cy="70" r="13"/><circle cx="134" cy="70" r="12"/><circle cx="176" cy="70" r="11"/></g>
    <g stroke="#94a3b8" stroke-width="4"><line x1="265" y1="58" x2="265" y2="90"/><line x1="301" y1="58" x2="301" y2="90"/><line x1="337" y1="58" x2="337" y2="90"/><line x1="373" y1="58" x2="373" y2="90"/></g>
    <text x="16" y="125" class="small">Keep the cleanest electrodes and sample directions evenly.</text>
  </g>
  <g transform="translate(1010,311)">
    <rect x="0" y="0" width="450" height="147" class="greenbox"/><text x="16" y="27" class="head">E — Unique electrode information</text>
    <path d="M30 86 C69 38 107 126 149 74" class="blue"/><path d="M30 92 C69 44 107 132 149 80" class="blue"/>
    <path d="M193 84L230 84" class="arrow"/><path d="M255 86 C294 38 332 126 374 74" class="blue"/><path d="M255 111 C294 126 332 45 416 99" class="orange"/>
    <text x="16" y="128" class="small">A complementary channel can prevent unique prediction loss.</text>
  </g>
  <g transform="translate(1010,471)">
    <rect x="0" y="0" width="450" height="183" class="orangebox"/><text x="16" y="27" class="head">T — Conditional next-trial value</text>
    <g transform="translate(95,93)"><circle cx="0" cy="0" r="48" fill="#fff" stroke="#cbd5e1" stroke-width="2"/><g stroke="#94a3b8" stroke-width="4"><line x1="0" y1="-48" x2="0" y2="-67"/><line x1="34" y1="-34" x2="48" y2="-48"/><line x1="48" y1="0" x2="67" y2="0"/><line x1="34" y1="34" x2="48" y2="48"/><line x1="0" y1="48" x2="0" y2="67"/><line x1="-34" y1="34" x2="-48" y2="48"/><line x1="-48" y1="0" x2="-67" y2="0"/></g><line x1="-34" y1="-34" x2="-57" y2="-57" stroke="#ea580c" stroke-width="10"/></g>
    <path d="M180 94L224 94" class="arrow"/>
    <path d="M250 113 C286 79 327 126 366 86 S407 73 428 94" class="orange"/><path d="M250 113 C286 101 327 112 366 104 S407 101 428 106" class="gray"/>
    <text x="16" y="163" class="small">Current error and uncertainty predict the most useful direction.</text>
  </g>

  <rect x="20" y="708" width="1460" height="158" class="panel"/>
  <text x="40" y="742" class="head">D  Scientific interpretation</text>
  <rect x="42" y="758" width="268" height="72" class="greenbox"/><text x="176" y="783" text-anchor="middle" class="sub">Candidate joint principle</text><text x="176" y="804" text-anchor="middle" class="small">Both value predictions explain</text><text x="176" y="821" text-anchor="middle" class="small">a repeated policy gain.</text>
  <rect x="325" y="758" width="268" height="72" class="bluebox"/><text x="459" y="783" text-anchor="middle" class="sub">One component explains it</text><text x="459" y="804" text-anchor="middle" class="small">Narrow the claim to electrode</text><text x="459" y="821" text-anchor="middle" class="small">choice or trial allocation.</text>
  <rect x="608" y="758" width="268" height="72" class="orangebox"/><text x="742" y="783" text-anchor="middle" class="sub">Engineering gain only</text><text x="742" y="804" text-anchor="middle" class="small">Policy wins, but the proposed</text><text x="742" y="821" text-anchor="middle" class="small">value predictions do not hold.</text>
  <rect x="891" y="758" width="268" height="72" class="card"/><text x="1025" y="783" text-anchor="middle" class="sub">No supported policy gain</text><text x="1025" y="804" text-anchor="middle" class="small">Matched simple rules do not lose</text><text x="1025" y="821" text-anchor="middle" class="small">across registered settings.</text>
  <rect x="1174" y="758" width="282" height="72" class="purplebox"/><text x="1315" y="783" text-anchor="middle" class="sub">Unresolved</text><text x="1315" y="804" text-anchor="middle" class="small">The comparison is imprecise</text><text x="1315" y="821" text-anchor="middle" class="small">or inconsistent.</text>
  <text x="750" y="854" text-anchor="middle" class="tiny">Retrospective policy labels only; forward confirmation of the explanation requires newly sequestered sessions and an independent third animal.</text>
</svg>
